<svg width="320" height="66" viewBox="0 0 320 66" fill="none" xmlns="http://www.w3.org/2000/svg">
<path fill-rule="evenodd" clip-rule="evenodd" d="M194.426 43.7732L194.217 43.7476C194.185 44.0137 194.154 44.2802 194.122 44.5468C194.185 44.5543 194.247 44.5624 194.31 44.5699C194.349 44.3043 194.387 44.0388 194.426 43.7732ZM217.755 55.0036C218.223 54.4594 218.224 54.4464 217.896 53.9705C217.455 54.4143 217.45 54.4409 217.755 55.0036ZM218.908 54.1838C219.12 54.3364 219.271 54.5046 219.332 54.4769C219.515 54.3961 219.663 54.238 219.824 54.11C219.712 53.9995 219.569 53.7792 219.493 53.8002C219.307 53.8504 219.153 54.0126 218.908 54.1838ZM195.749 36.3653C196.125 36.1173 196.488 35.8477 196.881 35.6273C197.261 35.4135 197.684 35.2734 198.063 35.0581C198.329 34.9075 198.543 34.672 198.795 34.4958C199.299 34.1424 199.795 33.7704 200.33 33.4682C200.85 33.1745 201.177 33.3648 201.24 33.9406C201.264 34.1685 201.247 34.4004 201.251 34.6303C201.304 37.2619 201.299 39.8959 201.424 42.5239C201.565 45.5078 201.8 48.4878 202.04 51.4662C202.155 52.9069 202.607 54.2654 203.343 55.5239C203.667 56.0766 204.006 56.6233 204.289 57.1961C204.802 58.2327 204.37 59.0154 203.212 59.057C202.026 59.0997 200.836 59.0354 199.647 59.0123C198.226 58.9847 196.804 58.9727 195.384 58.9109C194.744 58.8828 194.094 58.8095 193.475 58.6529C192.655 58.4456 192.399 58.0701 192.518 57.2478C192.642 56.3914 192.899 55.554 193.041 54.6991C193.397 52.5605 193.748 50.42 194.042 48.2724C194.14 47.5575 194.058 46.8186 194.058 46.0535C193.536 47.0726 193.47 48.1429 193.3 49.1976C193.167 50.0234 192.922 50.8351 192.672 51.6363C192.61 51.8341 192.337 52.0962 192.156 52.1002C191.823 52.1082 191.74 51.7824 191.73 51.4812C191.695 50.4094 191.654 49.3377 191.626 48.2654C191.55 45.4039 191.494 42.5425 191.406 39.682C191.319 36.8733 191.194 34.0656 191.103 31.2574C191.05 29.6243 191.022 27.9903 191 26.3563C190.996 26.0535 191.056 25.7463 191.117 25.4476C191.458 23.7624 192.469 22.9838 194.196 22.9045C197.859 22.7358 201.52 22.5124 205.182 22.3136C206.575 22.2378 207.968 22.1545 209.362 22.0992C210.678 22.0465 211.995 21.9953 213.312 22.0003C214.818 22.0064 216.29 22.2463 217.722 22.7333C221.038 23.8593 222.824 26.5264 222.836 29.7418C222.844 31.9085 222.419 33.9039 221.004 35.6133C220.244 36.5309 219.31 37.2568 218.336 37.9391C217.64 38.426 216.963 38.9396 216.297 39.4662C216.038 39.671 215.81 39.926 215.612 40.1911C215.294 40.6163 215.125 41.0907 215.3 41.6303C215.543 42.3818 215.718 43.1625 216.038 43.8808C216.875 45.7614 218.007 47.4752 219.283 49.0907C220.636 50.8035 222.013 52.4968 223.402 54.181C223.674 54.5108 224.01 54.8261 224.383 55.0329C225.634 55.7272 227.124 55.1072 227.429 53.7217C227.625 52.8306 227.734 51.8964 227.707 50.9867C227.632 48.4612 227.478 45.9371 227.33 43.414C227.249 42.038 227.092 40.666 227.026 39.29C227.006 38.8733 227.149 38.4401 227.267 38.0284C227.414 37.5134 227.606 37.0109 227.787 36.5063C228.049 35.7749 227.902 35.0982 227.522 34.4496C227.444 34.3171 227.373 34.1765 227.274 34.0611C226.482 33.1394 226.162 32.0711 226.187 30.8718C226.218 29.3131 226.181 27.7523 226.243 26.1951C226.267 25.5666 226.422 24.9296 226.608 24.3236C226.92 23.3015 227.699 22.7599 228.747 22.7272C231.123 22.6535 233.501 22.6113 235.878 22.6304C236.531 22.6359 237.213 22.8256 237.827 23.0666C238.974 23.5184 239.329 24.539 238.672 25.5676C237.316 27.6876 236.814 30.049 236.64 32.4843C236.502 34.418 236.491 36.3633 236.493 38.303C236.494 39.424 236.625 40.5455 236.711 41.6655C236.778 42.543 236.754 43.4004 236.318 44.2026C236.196 44.4265 236.118 44.6735 236.012 44.9064C235.777 45.421 235.764 45.9361 235.95 46.4717C236.285 47.4376 236.587 48.4145 236.927 49.3788C237.387 50.6866 237.383 52.0375 237.324 53.3899C237.301 53.922 237.202 54.4556 237.087 54.9777C236.428 57.9857 234.193 59.5535 231.517 59.8637C227.367 60.3452 223.419 59.5389 219.761 57.5897C214.445 54.7548 209.885 50.9842 206.168 46.2649C205.38 45.2654 204.761 44.1258 204.143 43.0083C203.47 41.7915 203.274 40.4536 203.368 39.0721C203.446 37.918 204.099 37.2799 205.253 37.2945C205.635 37.2995 206.019 37.3778 206.395 37.4551C206.698 37.5169 206.987 37.6364 207.287 37.7137C208.561 38.0425 209.632 37.7167 210.497 36.7307C211.232 35.8914 211.638 34.9019 211.753 33.8136C211.958 31.8618 211.519 30.047 210.38 28.4316C208.879 26.301 205.973 25.7473 203.783 27.1816C202.49 28.0279 201.925 29.3261 201.689 30.79C201.678 30.8558 201.732 30.9316 201.791 31.1047C202.027 30.9983 202.273 30.9371 202.456 30.796C203.249 30.1846 204.035 29.5631 204.801 28.919C205.435 28.3854 206.178 28.1163 206.977 27.9958C207.169 27.9667 207.468 28.0641 207.579 28.2082C207.77 28.4531 207.558 28.6886 207.358 28.8573C207.162 29.0224 206.946 29.1655 206.73 29.3051C205.433 30.1434 204.124 30.9647 202.839 31.8201C202.324 32.1625 201.821 32.3688 201.176 32.281C200.875 32.2398 200.524 32.3748 200.23 32.5048C199.595 32.785 198.971 33.0937 198.365 33.429C197.941 33.664 197.481 33.8994 197.164 34.2473C196.598 34.8673 196.128 35.5726 195.619 36.2418C195.662 36.283 195.705 36.3241 195.749 36.3653Z" fill="#EAE6D6"/>
<path fill-rule="evenodd" clip-rule="evenodd" d="M42.1202 57.3027C41.8578 57.818 41.5792 58.3262 41.3456 58.8541C41.2931 58.9729 41.3461 59.2338 41.442 59.3046C41.6594 59.4649 41.8335 59.2819 41.9203 59.0902C42.1716 58.5335 42.32 57.9525 42.1202 57.3027ZM40.521 57.3798C40.2597 57.5204 40.0861 57.5548 40.0588 57.6377C39.7783 58.4786 39.5088 59.3235 39.2747 60.1786C39.2459 60.2843 39.4124 60.5017 39.5411 60.5725C39.6188 60.6155 39.8398 60.5128 39.9231 60.4132C40.6356 59.5607 40.5791 58.558 40.521 57.3798ZM41.4415 52.0684C41.666 52.9533 41.9895 53.6203 42.3982 54.2397C43.9756 56.6299 43.5997 55.92 43.858 58.6672C43.9302 59.4348 43.9615 60.2064 43.9978 60.977C44.0276 61.6247 43.7536 62.1466 43.2061 62.4672C42.7 62.7635 42.1646 63.0284 41.6125 63.2241C39.6445 63.9229 37.5933 64.2688 35.54 64.597C32.8641 65.0237 30.1664 65.0885 27.4733 64.8993C22.8925 64.5778 18.8082 63.0446 15.5448 59.6785C13.1404 57.1983 11.6604 54.1998 10.7485 50.8994C10.2202 48.986 9.89573 47.0342 9.77261 45.051C9.72517 44.2814 9.68279 43.5113 9.66613 42.7402C9.65453 42.2133 9.43805 41.8892 8.93798 41.6874C7.70017 41.1888 6.48507 40.6346 5.24777 40.135C4.5837 39.8665 3.89894 39.6451 3.21267 39.4362C2.48351 39.2148 1.74375 39.2345 1.00954 39.4443C0.861691 39.4868 0.706776 39.5616 0.562962 39.5465C0.374742 39.5268 0.114868 39.4833 0.0331211 39.3553C-0.049635 39.2259 0.046241 38.9806 0.06693 38.787C0.069453 38.7637 0.0896375 38.7405 0.10528 38.7207C2.23827 36.1075 4.62558 34.7701 7.89344 35.658C9.2135 36.017 10.4306 36.6238 11.6371 37.2645C12.3814 37.6594 13.1696 37.982 13.9644 38.2636C14.3696 38.4067 14.851 38.4917 15.2496 38.0851C15.073 37.7666 14.8056 37.7863 14.5619 37.7458C13.7928 37.6184 13.0556 37.3848 12.4309 36.909C10.3453 35.3197 8.24162 33.7522 6.20804 32.0977C5.23666 31.3074 4.35309 30.3891 3.52755 29.4425C2.28469 28.0171 1.63526 26.3439 1.74779 24.4083C1.8255 23.0688 2.41539 22.057 3.54319 21.3501C4.17648 20.9531 4.85366 20.8925 5.53489 21.1746C6.63948 21.6317 7.58563 22.3477 8.47374 23.132C8.9183 23.5249 8.8744 23.9592 8.37484 24.3724C7.68705 24.9417 7.12037 25.5819 6.85949 26.4607C6.52847 27.5747 6.67228 28.6557 7.08556 29.709C7.66485 31.1845 8.70132 32.3283 9.83922 33.3836C10.2222 33.7386 10.4564 33.6303 10.6592 33.0716C11.0972 31.8636 11.4731 30.6283 11.9853 29.4526C12.7523 27.693 13.7918 26.1052 15.285 24.8532C16.7186 23.6513 18.3495 23.0283 20.2317 23.0213C24.6753 23.0031 29.1194 22.9424 33.563 22.9287C35.4371 22.9232 37.3112 23.0005 39.1853 23.0228C39.7096 23.0288 40.1658 23.1937 40.4852 23.5851C40.8223 23.9982 41.1488 24.4457 41.3612 24.9306C42.1403 26.7044 42.436 28.5733 42.2973 30.5059C42.2791 30.7577 42.216 31.0176 42.1176 31.2502C41.883 31.8044 41.3784 32.0841 40.8056 31.8949C40.3278 31.7367 39.8529 31.5005 39.4498 31.2002C38.5228 30.51 37.6246 29.7778 36.7425 29.0294C35.4235 27.9084 33.8708 27.3587 32.1975 27.0877C30.9435 26.8849 29.6966 26.9026 28.4503 27.1924C26.4348 27.6611 24.9291 28.813 23.8568 30.561C22.8163 32.2575 22.3091 34.14 21.9771 36.0782C21.5982 38.2925 21.4503 40.5295 21.5573 42.769C21.7743 47.3113 22.7583 51.6821 24.7101 55.8052C25.3742 57.2069 26.1952 58.5135 27.4062 59.5273C28.1107 60.1174 28.9079 60.5042 29.8102 60.6822C30.8567 60.8885 31.4476 60.6231 31.8049 59.6102C32.0855 58.8153 32.2949 57.981 32.417 57.1467C32.8126 54.4334 32.7596 51.7119 32.4003 48.9971C32.0279 46.1867 31.3442 43.4435 30.5848 40.7171C30.2285 39.4398 29.6179 38.2823 28.9634 37.1436C28.6556 36.6086 28.2984 36.0984 28.034 35.5432C27.6439 34.722 28.0334 34.1016 28.9357 34.0561C29.4226 34.0313 29.9146 34.0212 30.4001 34.0596C32.4513 34.2209 34.4783 34.5097 36.4175 35.2555C37.9748 35.8552 39.3675 36.6875 40.5004 37.939C41.3007 38.8234 41.8194 39.8377 42.0202 41.0078C42.372 43.0592 42.7499 45.1081 43.0269 47.1707C43.198 48.4419 43.2035 49.7359 43.2782 51.0202C43.2873 51.1729 43.2813 51.3317 43.2505 51.4814C43.1349 52.0411 42.7479 52.3066 42.1812 52.2201C41.9874 52.1903 41.7962 52.1418 41.4415 52.0684Z" fill="#EAE6D6"/>
<path fill-rule="evenodd" clip-rule="evenodd" d="M126.074 50.5993C125.717 50.5563 125.613 50.7692 125.628 51.0528C125.631 51.1147 125.832 51.2391 125.888 51.2141C126.163 51.0912 126.232 50.8752 126.074 50.5993ZM109.479 40.2949C108.99 40.3374 108.596 40.4142 108.493 40.9512C109.29 41.1835 109.461 41.0776 109.479 40.2949ZM107.855 41.4393C107.334 41.4408 106.856 41.2509 106.526 41.7924C107.318 42.3704 107.652 42.3033 107.855 41.4393ZM105.545 42.1104C105.537 42.0449 105.528 41.9788 105.52 41.9128C105.362 41.8892 105.176 41.8007 105.051 41.8544C104.609 42.0459 104.171 42.2573 103.769 42.5194C103.573 42.6473 103.505 42.9263 103.727 43.1239C103.97 43.3414 104.198 43.1669 104.289 42.9616C104.532 42.4149 104.919 42.1114 105.545 42.1104ZM107.213 54.2942C107.071 53.6881 106.663 53.0626 106.195 52.4836C106.122 52.3951 105.793 52.4212 105.649 52.5077C105.284 52.7263 105.236 53.1655 105.565 53.5089C105.88 53.8381 106.108 54.1908 106.226 54.6289C106.305 54.9222 106.466 55.192 106.814 55.1193C107.144 55.0502 107.215 54.7518 107.213 54.2942ZM89.8152 50.6758C89.8808 51.3453 89.9351 51.8557 90.2898 52.2078C90.8915 52.8067 91.2532 53.5459 91.6501 54.2712C91.862 54.6572 92.0698 55.0467 92.3046 55.4184C92.673 55.9999 93.141 56.4739 93.8066 56.7349C93.8138 56.4974 93.7894 56.2916 93.6979 56.1222C92.9347 54.712 92.1837 53.2941 91.3757 51.9104C91.0657 51.3791 90.553 51.0157 89.8152 50.6758ZM115.542 28.1847C115.283 28.4647 115.099 28.5998 115.002 28.782C114.718 29.3077 114.42 29.8339 114.216 30.3929C113.42 32.5669 112.681 34.7623 111.879 36.9337C110.974 39.3841 111.14 41.8355 111.765 44.3017C112.328 46.5207 112.941 48.728 113.438 50.9618C113.759 52.4043 113.934 53.8821 114.128 55.3502C114.189 55.8052 114.142 56.2895 114.064 56.7461C113.807 58.2351 112.96 59.1232 111.481 59.3648C110.697 59.4928 109.887 59.4949 109.088 59.4938C107.927 59.4923 106.764 59.4462 105.603 59.4007C104.596 59.3607 103.591 59.305 102.586 59.2369C101.918 59.1918 101.515 58.7793 101.259 58.1875C101.034 57.6644 101.035 57.1418 101.427 56.723C102.889 55.1644 102.934 53.275 102.774 51.3043C102.377 46.4424 101.043 41.794 99.6848 37.1462C99.417 36.2294 99.3047 35.266 99.1187 34.3242C98.9774 33.6101 98.8591 32.8904 98.6843 32.1845C98.4088 31.0722 98.3819 29.9721 98.7127 28.8685C98.7701 28.6766 98.791 28.4739 98.8367 28.2364C98.3992 28.1432 98.2051 28.436 98.0699 28.673C97.5689 29.5509 97.0343 30.4221 96.6512 31.3537C95.6502 33.7872 94.9352 36.319 94.3407 38.8814C94.1567 39.6723 93.8158 40.3193 93.2329 40.8875C92.3615 41.7372 92.2482 42.5685 92.7797 43.5744C92.8681 43.7412 93.0216 43.8723 93.2553 44.1523C93.3214 43.7678 93.3503 43.5488 93.3966 43.3338C93.5333 42.7001 93.6603 42.0643 93.8239 41.4378C93.9138 41.0938 94.1191 40.803 94.5297 40.8414C94.9286 40.8788 95.0856 41.1972 95.1669 41.5386C95.3509 42.3121 95.2431 43.0374 94.7675 43.6916C94.4245 44.1645 93.9672 44.4149 93.3239 44.3985C93.268 44.6734 93.2014 44.9201 93.1684 45.1714C92.8534 47.5542 92.6577 49.9355 93.2096 52.3147C93.4367 53.2924 93.8483 54.1483 94.4748 54.9545C95.0887 55.7443 95.5201 56.6816 96.0013 57.5707C96.0806 57.7176 96.0831 58.0181 95.9865 58.1281C95.7772 58.3657 95.5765 58.1353 95.3956 57.9935C95.2218 57.8579 95.0455 57.7253 94.8493 57.5753C94.611 57.95 94.8636 58.1312 94.9794 58.3344C95.4352 59.1371 95.2675 59.6049 94.3717 59.6914C92.7538 59.8481 91.1282 59.9801 89.5047 59.9996C88.2054 60.0154 87.3396 59.1499 87.1536 57.8435C86.8909 55.9982 86.996 54.1513 87.2374 52.3157C88.0535 46.1184 89.8904 40.1749 91.7283 34.2341C92.6054 31.3993 93.5556 28.589 94.7579 25.873C95.0521 25.2081 95.3935 24.5636 95.7182 23.912C96.265 22.814 97.1741 22.2387 98.3651 22.1301C99.1863 22.0554 100.016 21.9945 100.838 22.0211C101.895 22.0554 102.949 22.1793 104.003 22.2719C104.713 22.3339 105.21 22.726 105.504 23.3576C105.832 24.0645 106.164 24.7745 106.417 25.5101C107.153 27.6508 107.849 29.8048 108.566 31.9521C108.647 32.1968 108.727 32.4527 108.866 32.6641C109.045 32.937 109.309 32.9324 109.498 32.6646C109.632 32.4768 109.727 32.2556 109.809 32.0386C110.441 30.3868 111.048 28.7252 111.698 27.081C112.004 26.3086 112.341 25.5413 112.745 24.8175C113.796 22.9343 115.386 21.9474 117.571 22.0022C118.476 22.0247 119.382 22.0144 120.288 22.0047C120.865 21.9986 121.376 22.1721 121.738 22.6185C122.193 23.181 122.651 23.7554 123.01 24.3809C124.274 26.5814 125.119 28.9576 125.782 31.4029C126.184 32.8822 126.557 34.3697 126.969 35.8465C127.136 36.4469 127.354 37.0346 127.577 37.6171C129.59 42.8869 130.855 48.3553 131.819 53.9015C131.943 54.6161 131.975 55.3512 131.998 56.0781C132.034 57.1827 131.501 57.9618 130.534 58.4501C129.661 58.8908 128.719 59.0567 127.757 59.0787C125.457 59.1319 123.156 59.1749 120.855 59.179C120.27 59.1801 119.668 59.0772 119.103 58.92C118.2 58.6687 117.89 58.1962 117.877 57.2697C117.858 55.9542 118.142 54.6801 118.464 53.4214C118.889 51.7583 119.363 50.1075 119.856 48.4633C120.057 47.7928 120.12 47.1473 119.927 46.4711C119.127 43.6435 118.403 40.7918 117.516 37.9918C116.799 35.7288 116.294 33.4207 115.801 31.108C115.647 30.3837 115.708 29.6133 115.662 28.8644C115.652 28.6986 115.605 28.5353 115.542 28.1847Z" fill="#EAE6D6"/>
<mask id="mask0_0_279" style="mask-type:alpha" maskUnits="userSpaceOnUse" x="277" y="21" width="43" height="45">
<path fill-rule="evenodd" clip-rule="evenodd" d="M277 21H320V66H277V21Z" fill="white"/>
</mask>
<g mask="url(#mask0_0_279)">
<path fill-rule="evenodd" clip-rule="evenodd" d="M285.767 32.2182C285.887 32.0515 286.03 31.8965 286.01 31.8727C285.911 31.7531 285.78 31.6437 285.638 31.5859C285.596 31.5687 285.396 31.782 285.41 31.8078C285.49 31.9436 285.616 32.0535 285.767 32.2182ZM289.924 62.4059C289.651 62.1941 289.504 62.0224 289.319 61.9621C289.233 61.9337 288.988 62.1055 288.966 62.2159C288.913 62.4809 289.122 62.6445 289.365 62.6622C289.498 62.6718 289.643 62.5411 289.924 62.4059ZM286.891 59.5185C287.071 59.3639 287.157 59.3047 287.225 59.2292C287.388 59.0483 287.518 58.8401 287.324 58.6203C287.26 58.5468 287.026 58.5012 286.99 58.5433C286.853 58.7049 286.727 58.8974 286.673 59.0985C286.647 59.1953 286.791 59.3361 286.891 59.5185ZM283.182 55.7811C283.616 55.815 283.992 55.7476 284.245 55.8915C284.51 56.0414 284.657 56.3951 284.853 56.659C285.5 56.0313 285.476 55.7826 284.719 55.3586C284.628 55.3074 284.54 55.2496 284.446 55.2066C283.903 54.9568 283.613 55.0652 283.182 55.7811ZM284.851 34.6702C284.835 35.5001 285.213 35.992 285.791 36.3582C286.207 36.6222 286.544 36.6207 286.785 36.379C287.046 36.1171 287.034 35.7128 286.719 35.339C286.372 34.9271 286.006 34.5299 285.638 34.1363C285.358 33.8364 285.065 33.8845 284.927 34.2558C284.866 34.4205 284.862 34.6064 284.851 34.6702ZM304.769 60.2926C304.961 60.5003 305.036 60.6528 305.152 60.6963C306.193 61.0819 307.192 61.5961 308.317 61.7237C308.445 61.7384 308.581 61.7445 308.703 61.7136C309.113 61.6092 309.225 61.248 308.902 60.9831C308.627 60.7576 308.312 60.5054 307.978 60.439C307.077 60.2602 306.125 60.596 305.229 60.212C305.154 60.1796 305.037 60.2424 304.769 60.2926ZM302.73 60.3326C302.741 60.3012 302.752 60.2703 302.763 60.2388C302.841 60.2388 302.929 60.2621 302.996 60.2348C303.198 60.1507 303.458 60.0914 303.565 59.9349C303.628 59.8437 303.495 59.5195 303.359 59.4151C302.891 59.0549 302.412 58.6831 301.881 58.4354C301.428 58.2236 300.902 58.2575 300.477 58.6076C300.116 58.904 300.118 59.3807 300.538 59.561C301.248 59.866 301.997 60.0803 302.73 60.3326ZM307.064 37.6045C307.426 37.4864 307.798 37.3942 308.147 37.2458C309.009 36.879 309.853 36.4682 310.718 36.108C313.897 34.7852 316.682 35.3724 319.067 37.8269C319.355 38.1237 319.652 38.4231 319.88 38.7636C319.992 38.9292 320.045 39.2494 319.954 39.3958C319.869 39.5316 319.522 39.6294 319.351 39.5716C317.648 38.9976 316.114 39.5508 314.591 40.213C313.708 40.597 312.831 40.9962 311.944 41.3731C310.805 41.8579 309.623 42.1304 308.37 42.0874C307.653 42.0625 307.548 42.1836 307.631 42.902C307.908 45.3068 308.222 47.7076 308.482 50.1134C308.688 52.0081 308.81 53.9109 309.014 55.8056C309.159 57.1613 309.353 58.5134 309.572 59.8599C309.75 60.9496 310.015 62.0251 310.206 63.1128C310.391 64.1625 310.048 64.8362 309.012 65.16C308.051 65.4604 307.043 65.6595 306.041 65.776C303.809 66.0354 301.562 66.0435 299.318 65.932C295.693 65.7522 292.179 65.0662 288.842 63.6219C285.354 62.1117 282.384 59.9293 280.171 56.8396C278.406 54.3765 277.478 51.6201 277.501 48.5795C277.516 46.5419 277.518 44.5033 277.573 42.4663C277.588 41.9035 277.522 41.4465 277.009 41.1785C277.009 41.0873 276.987 41.0124 277.012 40.9926C277.644 40.4764 277.713 39.7707 277.711 39.0326C277.706 37.6911 277.664 36.3471 277.724 35.0081C277.831 32.6124 278.036 30.2253 278.82 27.9284C279.232 26.7212 279.757 25.5748 280.651 24.6315C281.622 23.6076 282.782 22.9881 284.244 23.0336C286.251 23.097 288.258 23.175 290.265 23.2135C291.828 23.2429 293.396 23.3543 294.952 23.0747C295.207 23.0291 295.473 23.0372 295.733 23.0367C298.736 23.0342 301.74 23.0651 304.742 23.02C305.95 23.0017 306.73 23.523 307.237 24.5357C307.879 25.8189 308.276 27.1837 308.404 28.6042C308.485 29.4943 308.505 30.4062 308.406 31.2927C308.275 32.4696 307.401 32.8571 306.375 32.2092C305.675 31.7684 305.05 31.2081 304.409 30.6808C303.708 30.1032 303.073 29.4345 302.327 28.9229C299.377 26.8975 296.179 26.4304 292.827 27.7633C290.789 28.5738 289.614 30.2699 288.839 32.2213C288.46 33.1758 288.222 34.188 287.968 35.1855C287.905 35.4322 287.967 35.7534 288.078 35.991C288.295 36.4525 288.238 36.803 287.899 37.1886C287.71 37.4039 287.577 37.7276 287.55 38.0143C286.944 44.4365 288.171 50.5278 290.985 56.3249C291.518 57.4232 292.186 58.4394 293.022 59.3381C293.85 60.2272 294.822 60.902 296.019 61.2237C297.144 61.5261 297.794 61.247 298.14 60.138C298.406 59.2844 298.593 58.3822 298.645 57.4916C298.834 54.2676 298.654 51.0522 298.269 47.8449C298.023 45.7942 297.709 43.7556 297.111 41.7778C296.373 39.3391 295.141 37.1799 293.171 35.4828C292.861 35.2164 292.418 34.9595 292.594 34.4808C292.788 33.9529 293.327 34.0699 293.753 34.0892C296.095 34.1935 298.35 34.6789 300.481 35.6682C301.118 35.9641 301.763 36.2508 302.375 36.5938C303.429 37.1845 304.455 37.1242 305.511 36.6044C307.139 35.804 308.613 34.7888 309.902 33.5294C310.623 32.8242 311.303 32.0694 311.93 31.2816C312.583 30.4624 312.981 29.511 313.149 28.4674C313.395 26.9451 312.97 25.6695 311.796 24.6456C310.819 23.7935 310.809 23.5266 311.855 22.7621C312.586 22.2266 313.345 21.7129 314.144 21.2849C315.059 20.7945 315.957 20.9601 316.768 21.606C317.271 22.0063 317.502 22.4956 317.227 23.1015C316.938 23.7409 317.1 24.25 317.584 24.7009C318.169 25.245 318.226 25.8726 318.005 26.6113C317.569 28.0652 316.756 29.2907 315.663 30.3074C314.373 31.5075 313.024 32.6509 311.649 33.7548C310.353 34.7949 308.986 35.7478 307.657 36.7488C307.399 36.9429 307.174 37.1799 306.933 37.3968L307.064 37.6045Z" fill="#EAE6D6"/>
</g>
<path fill-rule="evenodd" clip-rule="evenodd" d="M145.304 40.8011C145.398 40.6817 145.505 40.5966 145.49 40.5538C145.453 40.452 145.359 40.3699 145.288 40.2803C145.22 40.3402 145.089 40.4107 145.097 40.4576C145.114 40.5583 145.205 40.6464 145.304 40.8011ZM143.807 31.9602C143.948 31.7013 144.107 31.4495 144.228 31.1815C144.864 29.7763 145.475 28.3594 146.128 26.9623C146.432 26.311 146.833 25.7046 147.155 25.0604C147.874 23.6204 149.134 23.0719 150.667 23.0306C152.156 22.9903 153.649 22.9858 155.137 23.0417C155.605 23.0593 156.128 23.2341 156.512 23.497C156.945 23.7952 157.332 24.2278 157.594 24.6821C158.342 25.9746 159.027 27.3022 159.714 28.6269C160.113 29.394 160.334 30.1989 160.117 31.0753C160.057 31.3205 160.081 31.5855 160.057 31.8408C159.994 32.4921 160.257 32.9867 160.797 33.3524C161.973 34.1507 162.772 35.225 163.299 36.526C163.965 38.169 164.676 39.7943 165.371 41.4257C165.588 41.9355 165.724 42.4492 165.509 42.9912C165.361 43.3624 165.551 43.5961 165.856 43.7391C166.264 43.93 166.507 44.2403 166.659 44.6377C167.81 47.635 168.985 50.6264 169.713 53.7577C169.875 54.4518 169.929 55.1735 169.989 55.8862C170.11 57.3459 169.259 58.5693 167.358 58.8519C167.178 58.8785 166.994 58.8871 166.811 58.8871C163.935 58.8891 161.059 58.8967 158.183 58.8791C157.746 58.876 157.293 58.8035 156.877 58.6725C155.921 58.3718 155.628 57.5619 156.17 56.7299C156.436 56.3224 156.771 55.9537 157.104 55.5941C157.776 54.8668 158.122 54.0438 157.91 53.0581C157.578 51.5058 157.31 49.9343 156.863 48.4137C156.314 46.5451 155.641 44.7092 154.964 42.8804C154.117 40.5937 153.215 38.3292 152.532 35.9846C152.204 34.8578 151.721 33.7669 151.225 32.6966C150.784 31.7446 150.485 30.7861 150.533 29.7335C150.544 29.4791 150.542 29.2152 150.486 28.9684C150.369 28.4476 149.976 28.3192 149.564 28.6627C149.387 28.8097 149.221 28.988 149.107 29.1845C148.836 29.6509 148.514 30.1122 148.366 30.6189C147.909 32.1813 147.141 33.6133 146.513 35.1026C146.313 35.5761 146.106 36.0485 145.948 36.5356C145.873 36.7673 145.845 37.0448 145.897 37.2795C146.06 38.0209 146.443 38.1307 147.058 37.6568C147.262 37.4996 147.461 37.3138 147.695 37.2206C148.125 37.0488 148.514 37.3586 148.421 37.8079C148.361 38.102 148.225 38.3962 148.062 38.6535C147.338 39.7994 147.369 40.9301 147.887 42.1687C149.323 45.6067 150.67 49.0811 151.683 52.6677C151.99 53.7537 152.242 54.8507 152.22 55.994C152.19 57.5881 151.341 58.593 149.722 58.8418C149.131 58.9324 148.528 58.9833 147.93 58.9873C145.446 59.003 142.962 59.0075 140.479 58.9813C139.968 58.9758 139.431 58.8901 138.954 58.7164C138.103 58.4071 137.87 57.6712 138.345 56.9127C138.576 56.544 138.857 56.193 139.174 55.8923C140.131 54.9796 140.324 53.8997 140.101 52.6486C139.709 50.445 139.103 48.3004 138.377 46.1865C137.151 42.6149 135.753 39.1073 134.239 35.6431C133.993 35.0815 133.822 34.4871 133.643 33.9004C133.456 33.2874 133.325 32.6573 133.125 32.0489C132.804 31.0753 132.4 30.1243 132.455 29.0686C132.461 28.9543 132.386 28.8359 132.357 28.7463C132.002 28.6264 131.88 28.8515 131.756 29.0384C131.472 29.4685 131.224 29.9234 130.925 30.3424C130.446 31.0128 129.973 31.6923 129.432 32.3133C128.769 33.0753 128.097 33.0053 127.513 32.1823C127.075 31.5643 126.873 30.897 127.084 30.1475C127.182 29.803 127.242 29.4393 127.395 29.12C128.029 27.7989 128.705 26.4979 129.339 25.1767C130.062 23.6713 131.349 23.0759 132.945 23.0311C134.434 22.9888 135.925 23.0074 137.416 23.0255C138.352 23.0371 139.052 23.5166 139.569 24.2464C139.851 24.6443 140.09 25.0765 140.31 25.5122C141.27 27.4186 142.215 29.3325 143.17 31.242C143.292 31.4852 143.439 31.7169 143.574 31.9537C143.652 31.9562 143.729 31.9582 143.807 31.9602Z" fill="#EAE6D6"/>
<path fill-rule="evenodd" clip-rule="evenodd" d="M246.926 23.0361C246.769 23.2671 246.557 23.4654 246.492 23.7035C246.402 24.0428 246.366 24.4184 246.408 24.7663C246.441 25.0402 246.78 25.0699 247.032 24.8583C247.554 24.4209 247.545 23.6222 246.926 23.0361ZM270.556 54.2921C270.645 54.5608 270.661 54.7453 270.755 54.872C271.26 55.5537 271.779 56.2262 272.306 56.891C272.546 57.1935 272.808 57.4812 273.08 57.7561C273.184 57.8618 273.341 57.9145 273.562 58.0422C273.498 57.3391 273.264 56.8853 272.757 56.5895C272.202 56.265 271.795 55.8547 271.664 55.173C271.573 54.7019 271.254 54.3534 270.556 54.2921ZM245.985 39.3486C246.058 41.9118 246.079 44.2797 246.204 46.6425C246.324 48.9246 246.485 51.2072 246.924 53.4591C247.094 54.334 247.353 55.1725 247.786 55.9528C248.266 56.8158 248.754 57.6748 249.231 58.5399C249.381 58.8123 249.537 59.0877 249.642 59.379C249.873 60.0218 249.641 60.5006 249.004 60.7443C248.86 60.7995 248.705 60.8624 248.555 60.8608C247.363 60.8486 246.158 60.9288 244.984 60.7735C243.312 60.5517 242.281 59.4296 241.67 57.9124C241.149 56.616 240.985 55.244 241.001 53.8598C241.019 52.2742 241.109 50.6896 241.157 49.104C241.226 46.7907 241.282 44.4764 241.353 42.1632C241.442 39.3042 241.544 36.4462 241.633 33.5872C241.701 31.4037 241.726 29.2182 241.837 27.0373C241.879 26.2167 242.04 25.3843 242.274 24.5953C242.637 23.3735 243.484 22.6382 244.771 22.4256C245.743 22.2652 245.835 22.1338 245.872 21.1619C245.878 21.0061 245.864 20.8482 245.882 20.6939C245.92 20.3704 246.012 20.0459 246.389 20.004C246.749 19.9642 246.951 20.2263 247.077 20.5319C247.146 20.6985 247.191 20.8768 247.234 21.0526C247.27 21.2038 247.279 21.3627 247.319 21.5125C247.48 22.1129 247.68 22.281 248.297 22.3142C248.814 22.3418 249.338 22.3086 249.849 22.3801C250.84 22.5186 251.734 22.9504 252.582 23.4593C254.148 24.3975 255.6 25.4916 256.896 26.7793C259.366 29.2335 261.813 31.7113 264.278 34.1713C265.639 35.529 267.015 36.8713 268.388 38.2168C268.573 38.3987 268.762 38.5842 268.977 38.7252C269.181 38.8591 269.422 38.9368 269.646 39.039C269.75 38.7891 269.945 38.5382 269.942 38.2898C269.928 37.1202 269.89 35.9495 269.805 34.7834C269.665 32.8641 269.409 30.9622 268.926 29.092C268.587 27.7767 267.979 26.6254 267.096 25.6065C266.382 24.7833 265.467 24.3434 264.411 24.163C264.028 24.0976 263.641 24.0516 263.264 23.9586C262.977 23.8881 262.686 23.7123 262.729 23.3853C262.759 23.1625 262.934 22.9039 263.122 22.7716C263.344 22.6147 263.645 22.559 263.919 22.492C264.092 22.4501 264.28 22.4644 264.462 22.4588C266.508 22.396 268.555 22.329 270.602 22.2733C271.914 22.2381 272.889 22.8359 273.595 23.9162C274.37 25.1022 274.654 26.4481 274.821 27.8232C275.093 30.0522 275.006 32.2847 274.882 34.5208C274.804 35.9224 274.815 37.3297 274.809 38.7344C274.805 39.8014 274.844 40.8678 274.853 41.9347C274.889 46.2531 274.937 50.572 274.941 54.8909C274.941 55.6349 274.778 56.3841 274.64 57.1219C274.585 57.4178 274.397 57.6896 274.266 57.9712C274.126 58.2717 274.004 58.5828 273.834 58.8659C273.57 59.3074 273.329 59.7852 272.977 60.1495C271.743 61.426 270.236 62.0826 268.438 61.9917C267.507 61.9447 267.18 61.588 267.42 60.6948C268.057 58.3263 267.538 56.1035 266.635 53.9318C265.495 51.1893 263.797 48.7974 261.889 46.547C260.138 44.482 258.221 42.5786 256.248 40.7283C254.126 38.7375 252.025 36.7231 249.888 34.7477C249.107 34.0261 248.251 33.3859 247.426 32.7129C247.286 32.5984 247.137 32.4875 246.977 32.4068C246.647 32.2428 246.413 32.3342 246.333 32.694C246.25 33.0726 246.202 33.464 246.186 33.8519C246.108 35.7482 246.046 37.6455 245.985 39.3486Z" fill="#EAE6D6"/>
<path fill-rule="evenodd" clip-rule="evenodd" d="M48.8203 47.0518C48.6519 47.3451 48.5109 47.4918 48.4871 47.655C48.4457 47.9403 48.6848 48.1889 48.9295 48.1558C49.2106 48.1181 49.3415 47.9061 49.2743 47.665C49.2237 47.4842 49.0412 47.3396 48.8203 47.0518ZM50.5543 54.5067C50.3874 54.2842 50.2899 54.0416 50.116 53.9617C50.0002 53.9085 49.6974 54.0391 49.616 54.1712C49.4188 54.4921 49.2626 54.8523 49.1742 55.2169C49.1408 55.3535 49.3056 55.6037 49.4487 55.6941C49.5462 55.7553 49.8349 55.68 49.9138 55.574C50.1524 55.2546 50.3308 54.8909 50.5543 54.5067ZM48.1838 52.5554C47.9705 52.7623 47.7708 52.9863 47.5408 53.1732C47.0691 53.5564 46.6495 53.4022 46.5363 52.808C46.5034 52.6347 46.5165 52.4514 46.5155 52.2726C46.4963 49.4347 46.4928 46.5959 46.4559 43.758C46.426 41.433 46.3568 39.1085 46.3072 36.7834C46.3022 36.5534 46.2971 36.3218 46.3153 36.0933C46.3618 35.5137 46.5448 35.3545 47.1131 35.4986C47.4614 35.587 47.7703 35.5915 48.0781 35.4263C48.4806 35.2103 48.5726 34.9205 48.3157 34.5438C48.0114 34.0973 47.6671 33.6764 47.0782 33.5799C46.5342 33.491 46.3174 33.154 46.2658 32.6261C46.191 31.8652 46.0843 31.1057 45.9549 30.3518C45.6971 28.8535 45.0626 27.4763 44.5222 26.0694C44.3756 25.6877 44.2189 25.3085 44.0991 24.9177C43.8038 23.9538 44.1718 23.3149 45.1592 23.0849C45.4317 23.0216 45.7203 23.0055 46.0019 23.005C49.6817 22.9995 53.3615 23.0005 57.0418 23C57.0929 23 57.1445 23 57.196 23.002C58.6191 23.0527 59.0665 23.8659 58.3193 25.0864C57.691 26.1136 56.9867 27.1101 56.7158 28.2985C56.5409 29.0645 56.4296 29.8616 56.4226 30.6461C56.3912 34.047 56.3983 37.4484 56.4175 40.8498C56.4216 41.6334 56.2456 42.3436 55.9691 43.0764C55.5925 44.0739 55.3518 45.1242 55.0839 46.1594C55.0227 46.395 55.0849 46.6632 55.1006 46.9158C55.1223 47.2699 55.324 47.4964 55.6653 47.5492C56.2244 47.6351 56.3437 48.0073 56.3675 48.4839C56.4054 49.2494 56.4539 50.0143 56.511 50.7783C56.6147 52.1586 56.826 53.5242 57.3047 54.8261C57.5403 55.4675 57.8416 56.1059 58.2273 56.668C59.1606 58.0271 60.7474 58.5103 62.3136 57.9955C64.8226 57.1708 65.997 54.6127 64.9798 52.1902C64.6826 51.4815 64.1795 50.9471 63.5481 50.5232C63.2711 50.3373 62.9738 50.1791 62.7069 49.9802C61.8096 49.3087 61.8268 48.2273 62.7767 47.621C63.6553 47.061 64.6401 46.7561 65.6845 46.7008C66.1693 46.6757 66.6713 46.6672 67.1425 46.7626C68.6338 47.064 69.7602 48.4141 69.7809 49.944C69.7941 50.9129 69.7309 51.8848 69.6631 52.8527C69.5347 54.68 69.8441 56.4058 70.7015 58.0427C71.3056 59.1959 70.9897 59.9865 69.7819 60.4858C68.6743 60.9433 67.4944 61.0518 66.3119 61.1217C64.0026 61.2573 61.6933 61.3909 59.384 61.52C57.9978 61.5973 56.6111 61.6631 55.2244 61.7344C53.5309 61.8213 51.8368 61.9107 50.1433 61.9951C48.7262 62.0659 47.7966 61.3643 47.2531 60.1231C46.7405 58.9513 46.5499 57.7614 46.923 56.4741C47.2152 55.4645 47.4664 54.458 48.0129 53.5438C48.1737 53.2756 48.2303 52.9461 48.3345 52.6448C48.2844 52.6151 48.2344 52.5855 48.1838 52.5554Z" fill="#EAE6D6"/>
<path fill-rule="evenodd" clip-rule="evenodd" d="M172.777 35.2813C172.957 35.0886 173.111 34.9587 173.221 34.7996C174.539 32.9012 176.456 31.9838 178.683 31.5768C179.065 31.5066 179.455 31.4704 179.843 31.4403C181.149 31.339 182.313 31.7048 183.329 32.5097C184.599 33.5159 185.64 34.7153 185.821 36.3553C186.071 38.6195 185.417 40.6017 183.516 42.0591C182.656 42.7185 181.666 42.9644 180.587 42.8861C179.649 42.8178 179.308 42.3983 179.579 41.5151C179.792 40.8195 179.664 40.2033 179.353 39.5936C178.631 38.1784 177.43 37.6921 175.906 38.207C175.047 38.4971 174.304 38.9748 173.825 39.7456C173.462 40.3307 173.088 40.9375 172.883 41.5848C172.19 43.7738 171.869 46.0225 172.166 48.3119C172.391 50.0527 173.135 51.5898 174.336 52.8966C175.272 53.9163 176.434 54.4673 177.854 54.4392C178.036 54.4352 178.22 54.4251 178.4 54.4417C180.367 54.6209 182.035 53.9424 183.475 52.6863C184.427 51.8563 185.33 50.9711 186.245 50.1009C186.787 49.5855 187.282 49.0189 187.848 48.5322C188.572 47.9094 189.335 48.0624 189.769 48.9095C189.925 49.2151 190.016 49.5965 189.998 49.9363C189.959 50.6464 189.924 51.3805 189.714 52.053C189.289 53.416 188.816 54.7739 188.23 56.0762C187.901 56.8068 187.354 57.4622 186.818 58.0785C186.255 58.7258 185.485 59.0159 184.593 58.9993C181.159 58.9371 177.725 58.8955 174.291 58.8377C173.474 58.8237 173.1 58.5417 172.977 57.809C172.312 53.8571 170.97 50.0999 169.596 46.3512C169.402 45.8228 169.216 45.2903 168.998 44.7719C168.667 43.9856 168.117 43.4853 167.202 43.3879C166.276 43.289 166.071 42.7942 166.566 42.0033C166.607 41.9386 166.644 41.8674 166.7 41.8152C167.377 41.1683 167.367 40.4793 166.977 39.6638C166.547 38.766 166.169 37.8291 165.91 36.8721C165.659 35.9438 165.52 34.9727 165.454 34.0122C165.357 32.6121 165.389 31.2045 165.328 29.8013C165.281 28.6978 164.881 27.7132 164.153 26.8596C163.853 26.5073 163.55 26.15 163.304 25.7616C162.622 24.6837 163.129 23.6876 164.418 23.5802C164.961 23.535 165.516 23.5199 166.055 23.5827C166.398 23.6228 166.758 23.7769 167.045 23.9736C167.766 24.4694 168.521 24.5597 169.341 24.3038C169.539 24.2416 169.741 24.1909 169.937 24.1226C171.367 23.6228 172.819 23.3829 174.359 23.3759C177.895 23.3599 181.431 23.2003 184.967 23.0939C185.616 23.0743 186.265 23.0246 186.914 23.0016C187.772 22.9714 188.359 23.3804 188.677 24.1402C188.873 24.6104 189.073 25.0982 189.146 25.596C189.305 26.6795 189.427 27.7719 189.479 28.8644C189.511 29.5514 189.441 30.2856 188.672 30.6359C187.926 30.9751 187.378 30.516 186.845 30.1035C186.111 29.5334 185.419 28.9061 184.661 28.3691C182.351 26.7342 179.763 26.1746 176.966 26.6338C174.101 27.104 172.885 28.3526 172.529 31.1603C172.411 32.0957 172.378 33.0437 172.336 33.9871C172.308 34.6405 172.354 34.7158 172.777 35.2813Z" fill="#EAE6D6"/>
<path fill-rule="evenodd" clip-rule="evenodd" d="M77.5282 34.3377C77.6138 34.563 77.6714 34.803 77.7891 35.0106C78.4868 36.2428 79.1983 37.4674 79.9052 38.6945C79.9694 38.8062 80.0209 38.9294 80.1034 39.0259C80.8557 39.8989 81.1696 40.9305 81.3566 42.048C81.4453 42.5795 81.7292 43.1276 82.0666 43.56C82.9737 44.7235 83.3142 45.9936 83.2087 47.4546C83.095 49.0162 83.0283 50.5898 83.0848 52.1529C83.1328 53.4821 83.3443 54.8103 83.5614 56.1263C83.7209 57.0952 84.1215 57.9889 84.6907 58.8104C85.2269 59.5833 85.0679 60.1436 84.1984 60.5245C83.78 60.7079 83.3111 60.8276 82.855 60.8701C80.9917 61.0428 79.1326 61.1515 77.3238 60.4669C74.5009 59.3984 72.7824 57.0028 72.7885 53.9984C72.7941 51.1193 72.921 48.2452 73.1758 45.3742C73.369 43.1988 73.3929 41.0088 73.5769 38.8324C73.7227 37.1047 73.6156 35.3895 73.5091 33.6719C73.4092 32.0532 73.161 30.4538 72.7131 28.8897C72.4272 27.8934 71.998 26.9639 71.416 26.0995C70.6796 25.0062 70.9242 24.1242 72.1234 23.5189C72.8527 23.1512 73.6483 22.9955 74.4555 23.0001C77.0751 23.0147 79.6947 23.0673 82.3143 23.0956C83.1715 23.1052 83.7245 23.5073 84.0364 24.2878C84.4746 25.3826 84.5786 26.5314 84.6163 27.6898C84.7213 30.911 84.44 34.1099 84.0195 37.2997C83.9523 37.8089 83.9033 38.3202 83.8371 38.8299C83.8172 38.9815 83.7815 39.1345 83.728 39.2775C83.5863 39.6589 83.3468 39.9807 82.9274 40.0464C82.5222 40.1096 82.2541 39.8282 82.0385 39.5261C81.8592 39.2745 81.7165 38.9966 81.5325 38.7491C81.0259 38.0681 80.502 37.4007 79.9939 36.7212C79.8099 36.4747 79.6019 36.2292 79.4903 35.9498C79.1489 35.096 78.3574 34.7419 77.7412 34.1927C77.6699 34.2412 77.599 34.2892 77.5282 34.3377Z" fill="#EAE6D6"/>
<path fill-rule="evenodd" clip-rule="evenodd" d="M161.008 8.16244C161.742 8.16244 162.477 8.17203 163.211 8.1579C163.524 8.15185 163.84 8.11855 164.148 8.06002C164.805 7.93489 165.159 7.60289 165.132 6.96362C165.086 5.86521 164.976 4.76729 164.835 3.67645C164.788 3.30762 164.573 2.95796 164.423 2.60376C164.354 2.43878 164.234 2.29195 164.179 2.12343C163.948 1.4221 164.348 0.934194 165.093 1.023C165.533 1.07547 165.965 1.21019 166.406 1.25812C167.005 1.3227 167.608 1.3449 168.21 1.37669C169.281 1.43219 170.006 2.08559 170 3.13304C169.991 4.6462 169.857 6.15936 169.853 7.67252C169.847 9.72505 169.931 11.7776 169.942 13.8306C169.948 14.983 169.948 16.1425 169.83 17.2868C169.731 18.245 169.17 18.6289 168.18 18.7046C167.397 18.7641 166.617 18.8656 165.836 18.9488C165.68 18.9655 165.524 18.9932 165.367 18.9988C164.524 19.027 164.163 18.5704 164.378 17.7712C164.598 16.9548 164.88 16.1455 165.001 15.3145C165.149 14.3024 165.208 13.2711 165.214 12.2473C165.222 11.0727 164.817 10.7367 163.599 10.6353C161.843 10.4894 160.093 10.4667 158.337 10.6297C157.25 10.7306 156.779 11.0899 156.811 12.1742C156.862 13.9129 156.878 15.6682 157.477 17.3448C157.495 17.3933 157.512 17.4417 157.528 17.4906C157.914 18.6658 157.542 19.1113 156.313 18.9448C156.028 18.9059 155.743 18.864 155.458 18.8252C153.45 18.5522 152.088 17.085 152.062 15.1031C152.049 14.1036 152.119 13.1025 152.161 12.103C152.266 9.66248 152.212 7.22599 152.031 4.79C151.99 4.22894 151.98 3.65374 152.059 3.09924C152.236 1.84744 153.123 1.33178 154.077 1.35297C154.855 1.37013 155.637 1.20363 156.416 1.1123C156.598 1.09111 156.776 1.03965 156.957 1.01442C157.317 0.964467 157.646 1.03763 157.864 1.33935C158.071 1.62442 158.001 1.92817 157.844 2.21374C157.707 2.46249 157.517 2.69004 157.421 2.9514C156.918 4.32783 156.822 5.75774 156.926 7.20177C156.956 7.61904 157.229 7.90512 157.645 8.03227C157.819 8.08575 158.001 8.1463 158.18 8.14832C159.123 8.15992 160.065 8.15387 161.008 8.15387C161.008 8.15689 161.008 8.15942 161.008 8.16244Z" fill="#EAE6D6"/>
<path fill-rule="evenodd" clip-rule="evenodd" d="M136.18 3.79399C135.045 3.50584 134.077 3.36404 133.091 3.68562C132.563 3.8578 132.198 4.22191 131.956 4.70351C131.841 4.93444 131.76 5.18207 131.645 5.41351C131.392 5.9265 131.12 6.09362 130.673 6.03032C130.258 5.97157 129.995 5.67887 130 5.12485C130.006 4.43309 130.057 3.73727 130.152 3.05209C130.216 2.59733 130.366 2.14865 130.523 1.71263C130.968 0.477986 131.686 -0.0248838 133.022 0.000943315C133.864 0.0171486 134.706 0.0951365 135.546 0.16249C137.252 0.299222 138.956 0.454185 140.662 0.589904C142.028 0.698277 143.395 0.789938 144.761 0.888689C146.147 0.989465 147.504 0.927176 148.756 0.235413C148.868 0.173631 148.999 0.132105 149.127 0.111342C149.774 0.00550105 150.093 0.32201 149.976 0.945913C149.962 1.02137 149.947 1.10189 149.91 1.16722C149.41 2.04483 148.931 2.93511 148.394 3.78994C148.016 4.39105 147.371 4.60932 146.683 4.57741C144.553 4.47816 142.422 4.36675 140.295 4.21026C139.356 4.14139 139.092 4.19659 138.755 5.0266C137.532 8.03825 137.686 10.9233 139.695 13.5946C140.931 15.238 142.642 16.0695 144.703 16.1596C145.713 16.2042 146.679 15.8902 147.616 15.5231C147.958 15.3894 148.3 15.2435 148.656 15.1615C149.103 15.0587 149.469 15.2182 149.619 15.5119C149.78 15.8269 149.702 16.3014 149.334 16.546C148.223 17.2844 147.099 18.0045 145.947 18.678C145.625 18.8664 145.192 18.9343 144.805 18.9479C143.12 19.0087 141.425 19.0994 139.772 18.6689C136.272 17.7569 132.981 14.6454 132.991 10.2558C132.993 9.68815 132.994 9.12097 132.995 8.55378C132.997 7.15152 133.521 5.99538 134.677 5.13599C135.013 4.88633 135.359 4.64781 135.68 4.38093C135.84 4.24723 135.956 4.06138 136.18 3.79399Z" fill="#EAE6D6"/>
<path fill-rule="evenodd" clip-rule="evenodd" d="M177.899 1.76116C179.516 1.76165 181.134 1.76116 182.751 1.76165C183.66 1.76214 184.527 1.68095 185.33 1.17612C185.979 0.768214 186.624 1.09985 186.675 1.85169C186.71 2.36785 186.602 2.8963 186.523 3.41492C186.384 4.32864 186.212 5.23843 186.066 6.15166C185.985 6.65109 185.785 6.94779 185.429 7.00634C184.999 7.0772 184.678 6.87201 184.521 6.53595C183.933 5.27386 182.81 4.92303 181.489 4.86694C180.617 4.82954 179.744 4.74147 178.872 4.74097C177.967 4.74048 177.696 5.02242 177.639 5.8648C177.602 6.41392 177.539 6.96353 177.543 7.51265C177.548 8.29353 177.815 8.63697 178.709 8.70094C180.33 8.81755 181.934 8.81608 183.536 8.53118C183.951 8.45689 184.412 8.38062 184.724 8.74178C185.08 9.15263 184.897 9.59646 184.695 10.0142C184.291 10.8517 183.702 11.1124 182.705 11.0258C181.442 10.9156 180.173 10.8349 178.906 10.8039C177.816 10.7769 177.538 11.0534 177.542 12.0955C177.545 13.0462 177.598 13.9968 177.657 14.9464C177.693 15.5305 177.938 15.8277 178.506 15.8543C180.3 15.9384 182.097 16.1554 183.887 15.7667C184.766 15.5758 185.531 15.2304 186.158 14.6109C186.339 14.4313 186.543 14.2546 186.772 14.141C187.088 13.9835 187.446 13.9515 187.742 14.1931C188.041 14.4377 188.052 14.7723 187.916 15.0916C187.818 15.3204 187.666 15.5325 187.513 15.7347C186.974 16.4482 186.391 17.1336 185.887 17.8682C185.359 18.6368 184.623 19.0171 183.69 18.9994C182.131 18.9699 180.572 18.8951 179.015 18.8119C177.588 18.7362 176.164 18.5826 174.737 18.5453C174.058 18.5275 173.371 18.6806 172.694 18.7932C172.237 18.8695 171.827 18.8385 171.573 18.4454C171.312 18.0424 171.51 17.6734 171.787 17.3432C171.918 17.1862 172.067 17.0426 172.206 16.891C172.638 16.4221 172.897 15.8828 172.912 15.2559C172.963 13.2036 173.034 11.1513 173.044 9.09851C173.05 7.82313 172.974 6.54628 172.908 5.27189C172.864 4.41622 172.474 3.7436 171.658 3.3047C171.29 3.1069 170.889 2.85497 171.028 2.36932C171.167 1.88368 171.638 1.75279 172.096 1.73311C172.729 1.70556 173.366 1.75624 174.002 1.7587C175.301 1.7646 176.6 1.76067 177.899 1.76116Z" fill="#EAE6D6"/>
<path fill-rule="evenodd" clip-rule="evenodd" d="M204 9.26987C203.865 9.62333 203.574 9.59805 203.295 9.61689C201.774 9.72099 200.252 9.82311 198.732 9.94556C198.433 9.96985 198.133 10.0596 197.846 10.1562C197.196 10.3749 196.555 10.6237 195.907 10.8478C194.785 11.2355 193.976 11.9444 193.546 13.0553C193.473 13.2432 193.408 13.4375 193.307 13.611C193.013 14.1182 192.629 14.1291 192.319 13.6457C192.25 13.5401 192.2 13.4226 192.15 13.3071C191.656 12.1689 191.088 11.0748 190.334 10.0769C189.89 9.48899 189.885 9.20493 190.342 8.65417C191.109 7.72863 191.697 6.70494 192.183 5.61631C192.194 5.5935 192.202 5.56723 192.219 5.54988C192.407 5.36051 192.572 5.0596 192.792 5.01052C193.136 4.93467 193.29 5.28466 193.43 5.55583C193.637 5.96084 193.81 6.38618 194.054 6.76691C194.226 7.03411 194.451 7.35485 194.725 7.45598C195.817 7.85901 196.915 8.32599 198.053 8.50644C199.755 8.77563 201.493 8.82123 203.216 8.965C203.504 8.98929 203.836 8.92236 204 9.26987Z" fill="#EAE6D6"/>
<path fill-rule="evenodd" clip-rule="evenodd" d="M119 9.39112C119.498 8.93703 120.058 8.97421 120.565 8.90927C121.418 8.79971 122.281 8.75212 123.14 8.69858C123.716 8.66288 124.204 8.46558 124.672 8.12005C125.51 7.50038 126.152 6.75083 126.508 5.77026C126.516 5.74646 126.531 5.72515 126.541 5.70234C126.688 5.3816 126.811 4.986 127.238 5.00038C127.615 5.01277 127.741 5.37912 127.88 5.67657C128.371 6.73199 128.94 7.73734 129.679 8.64702C130.096 9.16011 130.108 9.49424 129.708 10.0088C128.909 11.035 128.306 12.1638 127.817 13.3595C127.76 13.4983 127.697 13.6416 127.606 13.7586C127.352 14.0828 127.041 14.0803 126.788 13.7521C126.697 13.6341 126.642 13.4884 126.577 13.3521C126.426 13.0328 126.255 12.7205 126.135 12.3903C125.604 10.9398 124.461 10.3955 123.019 10.2562C122.137 10.1709 121.255 10.0772 120.381 9.93544C119.922 9.86059 119.431 9.79911 119 9.39112Z" fill="#EAE6D6"/>
<path fill-rule="evenodd" clip-rule="evenodd" d="M58.9994 42.2594C58.8117 42.9006 58.5813 43.7516 58.3089 44.5861C58.2012 44.9147 57.922 45.042 57.5975 44.988C57.2793 44.9346 57.1685 44.6651 57.1321 44.3741C57.0687 43.8636 57.0224 43.3486 57.0016 42.8335C56.9777 42.2526 57.2231 41.7813 57.5824 41.3749C57.8336 41.0906 58.1211 40.9059 58.4971 41.0503C58.8127 41.1713 59.0124 41.5727 58.9994 42.2594Z" fill="#EAE6D6"/>
<path fill-rule="evenodd" clip-rule="evenodd" d="M5.9386 43.0003C6.52152 42.9854 6.99958 43.4567 7 44.047C7.00042 44.5953 6.591 44.9922 6.01682 44.9999C5.41935 45.0084 5.01576 44.6142 5.00036 44.0072C4.98622 43.446 5.38814 43.0145 5.9386 43.0003Z" fill="#EAE6D6"/>
<path fill-rule="evenodd" clip-rule="evenodd" d="M179.865 50.8785C179.356 50.9259 178.967 50.9705 178.576 50.9974C178.083 51.0312 177.849 50.7336 178.105 50.347C178.383 49.9266 178.717 49.5321 179.072 49.166C179.189 49.0466 179.5 48.958 179.632 49.0207C179.807 49.1039 179.995 49.3481 179.999 49.5267C180.01 49.9677 179.918 50.4111 179.865 50.8785Z" fill="#EAE6D6"/>
<path fill-rule="evenodd" clip-rule="evenodd" d="M85.9999 43.3637C85.9955 43.7372 85.9276 44.0126 85.6846 43.9996C85.4162 43.9852 85.0112 43.1642 85.0003 42.6187C84.9927 42.2452 85.1329 41.9868 85.3359 42.0005C85.6595 42.0221 86.0079 42.7377 85.9999 43.3637Z" fill="#EAE6D6"/>
<path fill-rule="evenodd" clip-rule="evenodd" d="M42 33.4195C41.9957 33.7068 41.6744 34.0092 41.3839 33.9998C41.1534 33.9918 41.0004 33.8259 41 33.5843C40.9996 33.2789 41.3033 32.984 41.6012 33.0007C41.8131 33.0128 42.0031 33.2124 42 33.4195Z" fill="#EAE6D6"/>
<path fill-rule="evenodd" clip-rule="evenodd" d="M61 39.2614C60.9758 39.6615 60.6121 40.0183 60.3296 39.9993C60.0643 39.9814 59.9982 39.8169 60 39.6334C60.0028 39.3165 60.3642 38.948 60.6495 39.0061C60.8045 39.0376 60.9212 39.2003 61 39.2614Z" fill="#EAE6D6"/>
<path fill-rule="evenodd" clip-rule="evenodd" d="M112.379 40C112.294 39.9039 112.083 39.7628 112.019 39.57C111.927 39.2963 112.187 39.004 112.473 39.0001C112.749 38.9962 112.95 39.1226 112.994 39.4261C113.038 39.7308 112.835 39.9691 112.379 40Z" fill="#EAE6D6"/>
<path fill-rule="evenodd" clip-rule="evenodd" d="M86.2892 45C86.7266 45.0103 87.0587 45.3532 86.9913 45.6626C86.9619 45.7979 86.7723 45.9721 86.6326 45.9948C86.3191 46.0472 85.9457 45.694 86.0066 45.4073C86.043 45.2364 86.2196 45.0947 86.2892 45Z" fill="#EAE6D6"/>
</svg>
